<?xml version="1.0" encoding="utf-8"?>
<!-- Generator: Adobe Illustrator 27.5.0, SVG Export Plug-In . SVG Version: 6.00 Build 0)  -->
<svg version="1.1" xmlns="http://www.w3.org/2000/svg" xmlns:xlink="http://www.w3.org/1999/xlink" x="0px" y="0px"
	 viewBox="0 0 750 500" style="enable-background:new 0 0 750 500;" xml:space="preserve">
<g id="BACKGROUND_2">
	<g>
		<rect style="fill:#263238;" width="750" height="500"/>
		<g>
			<g>
				<path style="fill:#FFFFFF;" d="M264.395,301.473c-19.607,0-27.45-7.843-27.45-25.038v-52.941c0-3.771,1.659-5.429,5.43-5.429
					h23.378c3.771,0,5.43,1.659,5.43,5.429v41.327c0,3.167,1.81,5.128,4.675,5.128h14.026v-46.455c0-3.771,1.659-5.429,5.43-5.429
					h23.228c3.771,0,5.43,1.659,5.43,5.429v97.736c0,3.771-1.659,5.43-5.43,5.43h-23.228c-3.771,0-5.43-1.659-5.43-5.43v-19.758
					H264.395z"/>
				<path style="fill:#FFFFFF;" d="M453.478,301.473c-19.607,0-27.45-7.843-27.45-25.038v-52.941c0-3.771,1.659-5.429,5.43-5.429
					h23.378c3.771,0,5.43,1.659,5.43,5.429v41.327c0,3.167,1.81,5.128,4.675,5.128h14.026v-46.455c0-3.771,1.659-5.429,5.43-5.429
					h23.228c3.771,0,5.43,1.659,5.43,5.429v97.736c0,3.771-1.659,5.43-5.43,5.43h-23.228c-3.771,0-5.43-1.659-5.43-5.43v-19.758
					H453.478z"/>
			</g>
			<g>
				<path style="fill:#E0E0E0;" d="M316.01,241.673c-3.19-1.04-6.8,0.36-8.15,3.43c-1.54,3.53,0.31,7.54,3.89,8.71l12.22,4v-13.53
					L316.01,241.673z"/>
				<path style="fill:#E0E0E0;" d="M431.46,218.063c-3.77,0-5.43,1.66-5.43,5.43v16.74c5.85-2.78,11.07-6.92,15.14-12.19l2.45,0.95
					c1.37,0.54,2.93-0.14,3.46-1.52l3.68-9.41H431.46z M450.73,260.713c-2.7-2-6.53-1.42-8.78,1.07l-10.81,11.97l-5.11-9.51v12.19
					c0,6.08,0.98,10.98,3.12,14.79c1.96,0.2,3.99-0.51,5.41-2.08l17.12-18.94C454.2,267.413,453.82,263.013,450.73,260.713z"/>
			</g>
			<g>
				<path style="fill:#FFFFFF;" d="M445.402,255.391c-2.694-2.005-6.526-1.426-8.777,1.066l-10.814,11.969l-8.572-15.971
					c-1.399-2.607-3.683-4.732-6.652-5.892l0.006-0.014l-47.161-18.427l-0.005,0.014c-4.13-1.614-8.577-0.935-11.978,1.41
					l-0.006-0.009l-0.332,0.227l-0.184,0.139l-19.275,13.31l-20.965-6.865c-3.191-1.045-6.805,0.355-8.148,3.433
					c-1.541,3.531,0.312,7.532,3.884,8.702l24.261,7.944c1.984,0.65,4.044,0.26,5.64-0.839l0.016,0.023l11.826-8.179l3.964-2.742
					c1.996-1.38,4.573,0.657,3.689,2.917l-1.751,4.482l-31.888,81.614l17.254,6.742l17.118-43.812
					c0.506-1.294,2.045-1.822,3.238-1.109c1.143,0.684,2.413,1.322,3.772,1.853c1.372,0.536,2.738,0.925,4.067,1.203
					c1.343,0.281,2.083,1.74,1.584,3.018l-17.112,43.796l17.24,6.736l31.888-81.614l2.741-7.017
					c0.763-1.953,3.465-2.116,4.457-0.268l3.565,6.64l6.811,12.67l0.018-0.01c0.34,0.635,0.77,1.233,1.335,1.744
					c2.635,2.381,6.7,2.175,9.081-0.46l0,0l17.115-18.942C448.871,262.083,448.492,257.69,445.402,255.391z"/>
				
					<ellipse transform="matrix(0.6079 -0.794 0.794 0.6079 -2.197 397.3986)" style="fill:#424242;" cx="401.244" cy="200.924" rx="33.091" ry="33.091"/>
				<path style="fill:#BDBDBD;" d="M368.92,172.428l-0.783-0.306c-0.753-0.294-1.603,0.078-1.897,0.831l-1.222,3.128l2.147,0.839
					L368.92,172.428z"/>
				<g>
					<path style="fill:#E0E0E0;" d="M444.716,207.219l-6.142-2.4l-6.426,16.448l6.142,2.4c1.377,0.538,2.93-0.142,3.468-1.52
						l4.478-11.46C446.774,209.31,446.093,207.757,444.716,207.219z"/>
					<path style="fill:#E0E0E0;" d="M361.55,177.6l-4.478,11.46c-0.538,1.377,0.142,2.93,1.52,3.468l6.142,2.4l6.426-16.448
						l-6.142-2.4C363.641,175.542,362.088,176.222,361.55,177.6z"/>
				</g>
				
					<rect x="365.009" y="176.129" transform="matrix(0.9314 0.3639 -0.3639 0.9314 89.3928 -121.4537)" style="fill:#757576;" width="3.917" height="0.688"/>
				
					<rect x="372.912" y="145.123" transform="matrix(0.9314 0.3639 -0.3639 0.9314 83.5456 -125.0596)" style="fill:#616262;" width="1.485" height="28.119"/>
				<path style="fill:#FFFFFF;" d="M380.928,146.93c-0.453,1.158-1.759,1.73-2.917,1.278c-1.158-0.453-1.73-1.758-1.278-2.917
					c0.453-1.158,1.758-1.73,2.917-1.278C380.808,144.465,381.38,145.771,380.928,146.93z"/>
				<path style="fill:#E0E0E0;" d="M355.178,340.491c3.342-3.229,7.903-3.012,12.59-1.181c6.37,2.489,10.556,7.009,7.399,15.091
					l-18.337-7.165l-4.731-1.848l2.068-5.292L355.178,340.491z"/>
				<path style="fill:#E0E0E0;" d="M340.49,334.752c-0.268-4.639-3.768-7.572-8.454-9.403c-6.37-2.489-12.512-2.004-15.67,6.078
					l18.338,7.165l4.731,1.848l2.068-5.292L340.49,334.752z"/>
				<path style="fill:#FFFFFF;" d="M417.964,158.129c-21.532-8.413-45.806,2.222-54.219,23.754
					c-8.413,21.532,2.222,45.806,23.754,54.219c21.532,8.413,45.806-2.222,54.219-23.754
					C450.131,190.817,439.496,166.542,417.964,158.129z M389.201,231.745c-15.899-6.212-23.752-24.137-17.54-40.037
					c6.212-15.899,24.137-23.753,40.037-17.54c15.899,6.212,23.753,24.137,17.54,40.037
					C423.026,230.104,405.101,237.957,389.201,231.745z"/>
				<polygon style="fill:#FFFFFF;" points="405.697,243.213 369.301,228.992 372.386,221.096 388.193,234.099 408.782,235.317 				
					"/>
				<path style="fill:#EF5350;" d="M406.603,241.503l-36.809-14.382c-0.551-0.215-1.173,0.057-1.388,0.608l-0.404,1.035
					c-0.215,0.551,0.057,1.173,0.608,1.388l36.809,14.382c0.551,0.215,1.173-0.057,1.388-0.608l0.404-1.035
					C407.426,242.34,407.154,241.719,406.603,241.503z"/>
				<g>
					<path style="fill:#FFFFFF;" d="M397.122,175.021c-8.822,0.7-13.364,6.947-11.698,8.714c1.572,1.92,6.664,0.456,12.348,0.142
						c5.653-0.578,11.213,0.313,12.534-1.764C411.749,180.122,405.947,174.351,397.122,175.021z"/>
					<path style="fill:#FFFFFF;" d="M378.177,186.495c-1.826,2.274-1.712,5.074-0.233,5.772c1.485,0.711,3.501-0.37,4.869-2.051
						c1.349-1.702,1.867-3.823,0.84-5.114C382.642,183.821,380.002,184.22,378.177,186.495z"/>
				</g>
				<path style="fill:#EEEEEE;" d="M393.081,258.279l-24.721-9.659c-0.936-0.365-1.99,0.097-2.356,1.032l-6.98,17.865
					c-0.366,0.936,0.096,1.99,1.032,2.356l24.721,9.659c0.936,0.365,1.99-0.097,2.356-1.032l6.98-17.865
					C394.479,259.699,394.017,258.645,393.081,258.279z"/>
				<path style="fill:#E0E0E0;" d="M349.002,304.699l-13.68-5.345c-0.881-0.344-1.873,0.091-2.217,0.971l-3.287,8.414
					c-0.344,0.881,0.091,1.873,0.971,2.217l13.68,5.345c0.881,0.344,1.873-0.091,2.217-0.971l3.287-8.414
					C350.317,306.036,349.883,305.043,349.002,304.699z"/>
				<path style="fill:#E0E0E0;" d="M369.294,312.628l13.68,5.345c0.881,0.344,1.316,1.337,0.972,2.217l-3.287,8.414
					c-0.344,0.881-1.337,1.315-2.217,0.971l-13.68-5.345c-0.881-0.344-1.315-1.337-0.971-2.217l3.287-8.414
					C367.421,312.718,368.414,312.284,369.294,312.628z"/>
				
					<rect x="369.604" y="257.627" transform="matrix(0.9314 0.3639 -0.3639 0.9314 120.2393 -119.9884)" style="fill:#EF5350;" width="17.838" height="2.896"/>
				
					<rect x="367.65" y="262.628" transform="matrix(0.9314 0.3639 -0.3639 0.9314 121.9254 -118.9344)" style="fill:#EF5350;" width="17.838" height="2.896"/>
				
					<rect x="365.696" y="267.629" transform="matrix(0.9314 0.3639 -0.3639 0.9314 123.6115 -117.8803)" style="fill:#EF5350;" width="17.838" height="2.896"/>
			</g>
		</g>
		<rect x="236.945" y="332.401" style="fill:none;" width="276.11" height="22"/>
		<text transform="matrix(1 0 0 1 400.2819 341.6301)" style="fill:#FFFFFF; font-family:'Raleway-Black'; font-size:13px;">PAGE LOST IN SPACE</text>
		<g>
			<path style="fill:#FAFAFA;" d="M472.13,157.676h3.436c0.414,0,0.75-0.336,0.75-0.75v-3.351c0-0.816,0.611-1.547,1.426-1.59
				c0.869-0.045,1.588,0.646,1.588,1.505v3.436c0,0.414,0.336,0.75,0.75,0.75h3.351c0.816,0,1.547,0.611,1.59,1.426
				c0.046,0.869-0.646,1.588-1.505,1.588h-3.436c-0.414,0-0.75,0.336-0.75,0.75v3.351c0,0.816-0.611,1.547-1.426,1.59
				c-0.869,0.046-1.588-0.646-1.588-1.505v-3.436c0-0.414-0.336-0.75-0.75-0.75h-3.351c-0.816,0-1.547-0.611-1.59-1.426
				C470.58,158.395,471.271,157.676,472.13,157.676z"/>
			<path style="fill:#FAFAFA;" d="M238.452,336.479h3.436c0.414,0,0.75-0.336,0.75-0.75v-3.351c0-0.816,0.611-1.547,1.426-1.59
				c0.869-0.046,1.588,0.646,1.588,1.505v3.436c0,0.414,0.336,0.75,0.75,0.75h3.351c0.816,0,1.547,0.611,1.59,1.426
				c0.046,0.869-0.646,1.588-1.505,1.588h-3.436c-0.414,0-0.75,0.336-0.75,0.75v3.351c0,0.816-0.611,1.547-1.426,1.59
				c-0.869,0.046-1.588-0.646-1.588-1.505v-3.436c0-0.414-0.336-0.75-0.75-0.75h-3.351c-0.816,0-1.547-0.611-1.59-1.426
				C236.901,337.198,237.593,336.479,238.452,336.479z"/>
			<path style="fill:#FAFAFA;" d="M312.156,182.873h3.436c0.414,0,0.75-0.336,0.75-0.75v-3.351c0-0.816,0.611-1.547,1.426-1.59
				c0.869-0.046,1.588,0.646,1.588,1.505v3.436c0,0.414,0.336,0.75,0.75,0.75h3.351c0.816,0,1.547,0.611,1.59,1.426
				c0.046,0.869-0.646,1.588-1.505,1.588h-3.436c-0.414,0-0.75,0.336-0.75,0.75v3.351c0,0.816-0.611,1.547-1.426,1.59
				c-0.869,0.045-1.588-0.646-1.588-1.505v-3.436c0-0.414-0.336-0.75-0.75-0.75h-3.351c-0.816,0-1.547-0.611-1.59-1.426
				C310.606,183.592,311.297,182.873,312.156,182.873z"/>
			<path style="fill:#FAFAFA;" d="M297.029,143.249h0.738c0.527,0,0.954-0.427,0.954-0.954v-0.737c0-0.336,0.273-0.609,0.609-0.609
				c0.336,0,0.609,0.273,0.609,0.609v0.737c0,0.527,0.427,0.954,0.954,0.954h0.737c0.336,0,0.609,0.273,0.609,0.609
				c0,0.336-0.272,0.609-0.609,0.609h-0.737c-0.527,0-0.954,0.427-0.954,0.954v0.737c0,0.336-0.273,0.609-0.609,0.609
				c-0.336,0-0.609-0.273-0.609-0.609v-0.737c0-0.527-0.427-0.954-0.954-0.954h-0.738c-0.336,0-0.609-0.273-0.609-0.609
				C296.42,143.522,296.693,143.249,297.029,143.249z"/>
			<path style="fill:#FAFAFA;" d="M505.84,362.579h0.737c0.527,0,0.954-0.427,0.954-0.954v-0.738c0-0.336,0.273-0.609,0.609-0.609
				c0.336,0,0.609,0.273,0.609,0.609v0.738c0,0.527,0.427,0.954,0.954,0.954h0.737c0.336,0,0.609,0.273,0.609,0.609
				c0,0.336-0.273,0.609-0.609,0.609h-0.737c-0.527,0-0.954,0.427-0.954,0.954v0.737c0,0.336-0.272,0.609-0.609,0.609
				c-0.336,0-0.609-0.273-0.609-0.609v-0.737c0-0.527-0.427-0.954-0.954-0.954h-0.737c-0.336,0-0.609-0.273-0.609-0.609
				C505.232,362.852,505.504,362.579,505.84,362.579z"/>
			<path style="fill:#FAFAFA;" d="M552.498,199.615h0.738c0.527,0,0.954-0.427,0.954-0.954v-0.737c0-0.336,0.273-0.609,0.609-0.609
				c0.336,0,0.609,0.273,0.609,0.609v0.737c0,0.527,0.427,0.954,0.954,0.954h0.737c0.336,0,0.609,0.273,0.609,0.609
				c0,0.336-0.273,0.609-0.609,0.609h-0.737c-0.527,0-0.954,0.427-0.954,0.954v0.737c0,0.336-0.273,0.609-0.609,0.609
				c-0.336,0-0.609-0.273-0.609-0.609v-0.737c0-0.527-0.427-0.954-0.954-0.954h-0.738c-0.336,0-0.609-0.273-0.609-0.609
				C551.889,199.888,552.162,199.615,552.498,199.615z"/>
			<path style="fill:#FAFAFA;" d="M482.723,110.391h0.737c0.527,0,0.954-0.427,0.954-0.954V108.7c0-0.336,0.273-0.609,0.609-0.609
				c0.336,0,0.609,0.273,0.609,0.609v0.738c0,0.527,0.427,0.954,0.954,0.954h0.737c0.336,0,0.609,0.272,0.609,0.609
				c0,0.336-0.273,0.609-0.609,0.609h-0.737c-0.527,0-0.954,0.427-0.954,0.954v0.737c0,0.336-0.273,0.609-0.609,0.609
				c-0.336,0-0.609-0.272-0.609-0.609v-0.737c0-0.527-0.427-0.954-0.954-0.954h-0.737c-0.336,0-0.609-0.273-0.609-0.609
				C482.114,110.664,482.387,110.391,482.723,110.391z"/>
			<path style="fill:#FAFAFA;" d="M232.252,191.42c0.591,0,1.069,0.479,1.069,1.069c0,0.59-0.479,1.069-1.069,1.069
				c-0.59,0-1.069-0.479-1.069-1.069C231.183,191.898,231.662,191.42,232.252,191.42z"/>
			<path style="fill:#FAFAFA;" d="M453.338,365.027c0.59,0,1.069,0.479,1.069,1.069c0,0.591-0.479,1.069-1.069,1.069
				c-0.591,0-1.069-0.479-1.069-1.069C452.269,365.506,452.748,365.027,453.338,365.027z"/>
			<path style="fill:#FAFAFA;" d="M307.227,359.213c0.589-0.048,1.105,0.39,1.153,0.978c0.048,0.589-0.39,1.105-0.978,1.153
				c-0.589,0.048-1.105-0.39-1.153-0.978C306.2,359.778,306.638,359.262,307.227,359.213z"/>
			<path style="fill:#FAFAFA;" d="M542.966,134.02c0.591,0,1.069,0.479,1.069,1.069c0,0.591-0.479,1.069-1.069,1.069
				c-0.591,0-1.069-0.479-1.069-1.069C541.897,134.499,542.375,134.02,542.966,134.02z"/>
			<path style="fill:#FAFAFA;" d="M201.46,270.291c1.144,0,2.072,0.927,2.072,2.072c0,1.144-0.928,2.072-2.072,2.072
				c-1.144,0-2.072-0.928-2.072-2.072C199.388,271.219,200.315,270.291,201.46,270.291z"/>
			<path style="fill:#FAFAFA;" d="M197.316,153.176c1.144,0,2.072,0.928,2.072,2.072c0,1.144-0.928,2.072-2.072,2.072
				s-2.072-0.928-2.072-2.072C195.244,154.104,196.172,153.176,197.316,153.176z"/>
			<path style="fill:#FAFAFA;" d="M411.517,89.016c1.144,0,2.072,0.928,2.072,2.072c0,1.144-0.928,2.072-2.072,2.072
				s-2.072-0.928-2.072-2.072C409.445,89.943,410.373,89.016,411.517,89.016z"/>
			<circle style="fill:#FAFAFA;" cx="572.378" cy="285.373" r="1.069"/>
			<path style="fill:#FAFAFA;" d="M417.399,306.759c0.591,0,1.069,0.479,1.069,1.069c0,0.591-0.479,1.069-1.069,1.069
				c-0.591,0-1.069-0.479-1.069-1.069C416.33,307.237,416.809,306.759,417.399,306.759z"/>
			<path style="fill:#FAFAFA;" d="M263.971,109.931c0.59,0.022,1.051,0.518,1.029,1.108c-0.022,0.59-0.518,1.051-1.108,1.029
				c-0.59-0.022-1.051-0.518-1.029-1.108C262.885,110.37,263.381,109.91,263.971,109.931z"/>
		</g>
	</g>
	<g>
		<g>
			<path style="fill:#FFFFFF;" d="M416.284,410.984h-82.567c-2.046,0-3.71-1.664-3.71-3.71V390.88c0-2.045,1.664-3.709,3.71-3.709
				h82.567c2.045,0,3.709,1.664,3.709,3.709v16.395C419.993,409.32,418.329,410.984,416.284,410.984z M333.717,388.171
				c-1.494,0-2.71,1.215-2.71,2.709v16.395c0,1.494,1.216,2.71,2.71,2.71h82.567c1.494,0,2.709-1.216,2.709-2.71V390.88
				c0-1.494-1.215-2.709-2.709-2.709H333.717z"/>
		</g>
	</g>
	<rect x="335.341" y="393.928" style="fill:none;" width="79.319" height="10.297"/>
	<text transform="matrix(1 0 0 1 346.4966 403.6029)" style="fill:#FFFFFF; font-family:'Raleway-Black'; font-size:13.625px;">GO HOME</text>
</g>
<g id="BACKGROUND_1">
</g>
<g id="DESIGNED_BY_FREEPIK">
	<g>
		<g>
			<path style="fill:#FFFFFF;" d="M300.869,475.946c-0.14-0.17-0.34-0.25-0.61-0.25c-0.27,0-0.47,0.09-0.62,0.27
				c-0.14,0.191-0.21,0.46-0.21,0.82v2.6c-0.33-0.359-0.67-0.63-1.02-0.81c-0.35-0.17-0.77-0.26-1.28-0.26
				c-0.87,0-1.58,0.31-2.12,0.92c-0.53,0.62-0.8,1.47-0.8,2.57c0,0.52,0.07,1,0.2,1.449c0.14,0.45,0.33,0.841,0.6,1.17
				c0.26,0.33,0.57,0.58,0.93,0.761c0.35,0.18,0.74,0.27,1.16,0.27c0.32,0,0.62-0.05,0.88-0.14c0.27-0.08,0.52-0.21,0.75-0.38
				c0.23-0.17,0.46-0.391,0.7-0.66v0.17c0,0.32,0.08,0.57,0.23,0.75c0.16,0.17,0.36,0.26,0.6,0.26c0.24,0,0.44-0.09,0.6-0.25
				c0.15-0.17,0.23-0.42,0.23-0.76v-7.75C301.089,476.366,301.019,476.116,300.869,475.946z M299.099,483.116
				c-0.15,0.33-0.35,0.58-0.61,0.74c-0.25,0.16-0.54,0.24-0.84,0.24c-0.31,0-0.59-0.091-0.85-0.261c-0.26-0.17-0.46-0.42-0.61-0.75
				c-0.14-0.34-0.22-0.739-0.22-1.22c0-0.45,0.07-0.85,0.21-1.19c0.14-0.34,0.34-0.6,0.59-0.779c0.25-0.181,0.54-0.28,0.86-0.28
				c0.31,0,0.6,0.09,0.86,0.27c0.26,0.181,0.46,0.44,0.61,0.771c0.16,0.34,0.23,0.74,0.23,1.21
				C299.329,482.366,299.259,482.776,299.099,483.116z"/>
			<path style="fill:#FFFFFF;" d="M307.919,483.036c-0.17,0-0.3,0.04-0.39,0.12c-0.22,0.2-0.4,0.37-0.53,0.49
				c-0.14,0.12-0.29,0.229-0.45,0.34c-0.17,0.1-0.33,0.18-0.51,0.229c-0.17,0.051-0.36,0.07-0.57,0.07c-0.32,0-0.6-0.08-0.86-0.229
				c-0.26-0.15-0.47-0.381-0.63-0.69c-0.16-0.3-0.24-0.66-0.24-1.05h3.44c0.46,0,0.81-0.07,1.07-0.2c0.25-0.13,0.38-0.42,0.38-0.86
				c0-0.479-0.13-0.939-0.37-1.399c-0.24-0.46-0.61-0.84-1.11-1.13c-0.49-0.29-1.08-0.431-1.76-0.431c-0.53,0-1.01,0.08-1.44,0.25
				c-0.44,0.17-0.8,0.42-1.1,0.73c-0.29,0.32-0.52,0.7-0.67,1.149c-0.16,0.44-0.24,0.921-0.24,1.44c0,1.1,0.32,1.98,0.94,2.62
				c0.63,0.64,1.51,0.97,2.64,0.97c0.49,0,0.93-0.07,1.31-0.2c0.38-0.13,0.69-0.29,0.94-0.479c0.25-0.2,0.44-0.4,0.57-0.61
				c0.12-0.22,0.18-0.399,0.18-0.56c0-0.181-0.05-0.32-0.16-0.42C308.239,483.086,308.099,483.036,307.919,483.036z
				 M304.249,479.966c0.28-0.3,0.64-0.449,1.08-0.449c0.46,0,0.83,0.149,1.11,0.449c0.28,0.301,0.44,0.75,0.49,1.351h-3.19
				C303.799,480.727,303.969,480.276,304.249,479.966z"/>
			<path style="fill:#FFFFFF;" d="M314.919,482.296c-0.18-0.25-0.44-0.47-0.79-0.649c-0.34-0.19-0.79-0.351-1.33-0.481
				c-0.46-0.109-0.82-0.21-1.08-0.28c-0.27-0.079-0.47-0.18-0.63-0.3c-0.15-0.109-0.23-0.27-0.23-0.45c0-0.199,0.1-0.369,0.31-0.51
				c0.22-0.13,0.48-0.2,0.8-0.2c0.31,0,0.55,0.051,0.73,0.16c0.18,0.101,0.34,0.24,0.47,0.41c0.16,0.2,0.31,0.36,0.43,0.46
				c0.13,0.101,0.28,0.16,0.46,0.16c0.25,0,0.45-0.07,0.58-0.2c0.14-0.13,0.2-0.29,0.2-0.49c0-0.19-0.06-0.38-0.19-0.569
				c-0.12-0.19-0.31-0.37-0.55-0.53c-0.24-0.16-0.54-0.28-0.91-0.38c-0.36-0.09-0.77-0.14-1.22-0.14c-0.58,0-1.08,0.09-1.49,0.279
				c-0.41,0.19-0.72,0.44-0.93,0.75c-0.21,0.311-0.31,0.65-0.31,1c0,0.391,0.11,0.73,0.34,1c0.23,0.271,0.53,0.49,0.91,0.65
				c0.38,0.16,0.87,0.32,1.48,0.47c0.53,0.13,0.92,0.271,1.15,0.41c0.24,0.14,0.35,0.37,0.35,0.67c0,0.21-0.11,0.38-0.33,0.54
				c-0.23,0.16-0.52,0.24-0.87,0.24c-0.43,0-0.78-0.08-1.03-0.23c-0.25-0.16-0.46-0.39-0.65-0.71c-0.08-0.16-0.18-0.29-0.28-0.38
				c-0.1-0.09-0.24-0.13-0.42-0.13c-0.21,0-0.39,0.07-0.52,0.2c-0.14,0.14-0.21,0.31-0.21,0.5c0,0.29,0.11,0.58,0.32,0.87
				c0.22,0.29,0.55,0.529,1,0.729c0.45,0.19,0.99,0.29,1.62,0.29c0.66,0,1.22-0.09,1.68-0.27c0.47-0.181,0.82-0.44,1.05-0.79
				c0.24-0.34,0.35-0.761,0.35-1.24C315.179,482.836,315.099,482.546,314.919,482.296z"/>
			<path style="fill:#FFFFFF;" d="M317.599,478.576c-0.17-0.18-0.38-0.27-0.64-0.27c-0.26,0-0.47,0.09-0.63,0.27
				c-0.16,0.17-0.24,0.43-0.24,0.78v5.029c0,0.341,0.08,0.601,0.24,0.79c0.16,0.181,0.37,0.28,0.63,0.28c0.26,0,0.47-0.09,0.64-0.27
				c0.17-0.181,0.25-0.45,0.25-0.801v-5.079C317.849,478.996,317.769,478.746,317.599,478.576z M317.579,475.986
				c-0.17-0.14-0.37-0.22-0.6-0.22c-0.24,0-0.44,0.08-0.62,0.25c-0.18,0.159-0.27,0.359-0.27,0.609c0,0.28,0.09,0.49,0.26,0.641
				c0.18,0.149,0.39,0.22,0.63,0.22c0.24,0,0.44-0.07,0.61-0.22c0.17-0.16,0.26-0.37,0.26-0.641
				C317.849,476.347,317.759,476.136,317.579,475.986z"/>
			<path style="fill:#FFFFFF;" d="M325.379,478.636c-0.11-0.22-0.34-0.329-0.68-0.329c-0.23,0-0.43,0.09-0.58,0.25
				c-0.15,0.17-0.22,0.409-0.22,0.71v0.239c-0.31-0.409-0.65-0.71-1.02-0.899c-0.36-0.19-0.79-0.29-1.29-0.29
				c-0.42,0-0.8,0.08-1.15,0.229c-0.35,0.141-0.65,0.36-0.92,0.66c-0.26,0.29-0.47,0.65-0.61,1.07c-0.15,0.43-0.22,0.899-0.22,1.43
				c0,0.71,0.12,1.33,0.36,1.87c0.23,0.54,0.57,0.96,1.01,1.26c0.44,0.311,0.95,0.46,1.54,0.46c0.49,0,0.91-0.1,1.27-0.3
				c0.35-0.2,0.66-0.49,0.93-0.86c-0.01,0.57-0.02,0.99-0.04,1.25c-0.01,0.261-0.07,0.5-0.17,0.73c-0.1,0.23-0.28,0.4-0.53,0.53
				c-0.25,0.13-0.6,0.189-1.06,0.189c-0.22,0-0.42-0.02-0.59-0.06c-0.17-0.04-0.32-0.101-0.44-0.19c-0.12-0.08-0.24-0.18-0.34-0.3
				c-0.1-0.12-0.2-0.24-0.29-0.35c-0.19-0.23-0.42-0.34-0.68-0.34c-0.2,0-0.38,0.069-0.52,0.199c-0.15,0.141-0.22,0.311-0.22,0.53
				c0,0.28,0.13,0.55,0.38,0.82c0.26,0.269,0.63,0.489,1.1,0.66c0.48,0.17,1.02,0.25,1.63,0.25c0.66,0,1.21-0.061,1.65-0.2
				c0.45-0.13,0.81-0.33,1.08-0.61c0.28-0.27,0.48-0.62,0.6-1.04c0.12-0.42,0.19-0.92,0.19-1.51v-5.1
				C325.549,479.176,325.489,478.856,325.379,478.636z M323.589,483.046c-0.16,0.311-0.37,0.551-0.63,0.7
				c-0.26,0.16-0.54,0.24-0.83,0.24c-0.49,0-0.9-0.18-1.21-0.55c-0.31-0.36-0.46-0.9-0.46-1.61c0-0.71,0.15-1.25,0.45-1.63
				c0.3-0.38,0.7-0.58,1.21-0.58c0.51,0,0.93,0.2,1.24,0.6c0.32,0.4,0.48,0.96,0.48,1.681
				C323.839,482.347,323.749,482.727,323.589,483.046z"/>
			<path style="fill:#FFFFFF;" d="M332.899,480.156c-0.03-0.24-0.11-0.48-0.22-0.691c-0.18-0.369-0.45-0.649-0.82-0.859
				c-0.36-0.2-0.78-0.3-1.24-0.3c-0.48,0-0.9,0.1-1.27,0.29c-0.1,0.05-0.19,0.109-0.29,0.18c-0.25,0.18-0.49,0.42-0.72,0.72v-0.22
				c0-0.21-0.04-0.391-0.11-0.53c-0.08-0.149-0.18-0.26-0.3-0.33c-0.13-0.069-0.27-0.109-0.42-0.109c-0.25,0-0.45,0.079-0.6,0.25
				c-0.15,0.159-0.22,0.409-0.22,0.75v5.079c0,0.341,0.08,0.601,0.25,0.79c0.16,0.181,0.37,0.28,0.62,0.28
				c0.26,0,0.48-0.09,0.64-0.27c0.17-0.181,0.25-0.45,0.25-0.801v-2.199c0-0.721,0.04-1.21,0.13-1.471
				c0.12-0.33,0.31-0.58,0.56-0.77c0.26-0.19,0.55-0.28,0.86-0.28c0.48,0,0.8,0.15,0.96,0.46c0.16,0.31,0.24,0.75,0.24,1.33v2.93
				c0,0.341,0.09,0.601,0.25,0.79c0.16,0.181,0.37,0.28,0.64,0.28c0.25,0,0.46-0.09,0.62-0.27c0.17-0.181,0.25-0.45,0.25-0.801
				v-3.27C332.959,480.727,332.939,480.406,332.899,480.156z"/>
			<path style="fill:#FFFFFF;" d="M339.769,483.036c-0.17,0-0.29,0.04-0.38,0.12c-0.22,0.2-0.4,0.37-0.54,0.49
				c-0.14,0.12-0.29,0.229-0.45,0.34c-0.16,0.1-0.33,0.18-0.5,0.229c-0.17,0.051-0.35,0.07-0.55,0.07h-0.01c-0.01,0-0.01,0-0.02,0
				c-0.31,0-0.6-0.08-0.86-0.229c-0.26-0.15-0.47-0.381-0.62-0.69c-0.03-0.06-0.06-0.11-0.08-0.17v-0.01
				c-0.11-0.261-0.16-0.56-0.17-0.87h3.44c0.46,0,0.82-0.07,1.07-0.2c0.25-0.13,0.38-0.42,0.38-0.86c0-0.479-0.12-0.939-0.37-1.399
				c-0.24-0.46-0.61-0.84-1.1-1.13c-0.49-0.29-1.08-0.431-1.77-0.431c-0.53,0-1.01,0.08-1.44,0.25c-0.43,0.17-0.8,0.42-1.09,0.73
				c-0.3,0.32-0.53,0.7-0.68,1.149c-0.15,0.44-0.23,0.921-0.23,1.44c0,1.1,0.31,1.98,0.94,2.62c0.62,0.64,1.5,0.97,2.63,0.97
				c0.49,0,0.93-0.07,1.31-0.2c0.01,0,0.03-0.01,0.04-0.01c0.36-0.13,0.66-0.29,0.91-0.47c0.25-0.2,0.43-0.4,0.56-0.61
				c0.12-0.22,0.19-0.399,0.19-0.56c0-0.181-0.06-0.32-0.17-0.42C340.099,483.086,339.949,483.036,339.769,483.036z
				 M336.109,479.966c0.28-0.3,0.64-0.449,1.07-0.449c0.46,0,0.83,0.149,1.11,0.449c0.29,0.301,0.45,0.75,0.49,1.351h-3.19
				C335.649,480.727,335.819,480.276,336.109,479.966z"/>
			<path style="fill:#FFFFFF;" d="M347.639,475.946c-0.14-0.17-0.35-0.25-0.61-0.25c-0.271,0-0.48,0.09-0.62,0.27
				c-0.14,0.191-0.22,0.46-0.22,0.82v2.6c-0.33-0.359-0.66-0.63-1.01-0.81c-0.35-0.17-0.78-0.26-1.28-0.26
				c-0.88,0-1.58,0.31-2.12,0.92c-0.54,0.62-0.81,1.47-0.81,2.57c0,0.52,0.07,1,0.21,1.449c0.13,0.45,0.33,0.841,0.59,1.17
				c0.26,0.33,0.57,0.58,0.93,0.761c0.36,0.18,0.75,0.27,1.17,0.27c0.32,0,0.61-0.05,0.88-0.14c0.27-0.08,0.52-0.21,0.75-0.38
				c0.23-0.17,0.46-0.391,0.69-0.66v0.17c0,0.32,0.08,0.57,0.24,0.75c0.16,0.17,0.35,0.26,0.6,0.26c0.24,0,0.44-0.09,0.59-0.25
				c0.16-0.17,0.24-0.42,0.24-0.76v-7.75C347.859,476.366,347.779,476.116,347.639,475.946z M345.869,483.116
				c-0.15,0.33-0.36,0.58-0.61,0.74c-0.26,0.16-0.54,0.24-0.85,0.24c-0.3,0-0.58-0.091-0.84-0.261c-0.26-0.17-0.46-0.42-0.61-0.75
				c-0.15-0.34-0.22-0.739-0.22-1.22c0-0.45,0.07-0.85,0.21-1.19c0.14-0.34,0.33-0.6,0.59-0.779c0.25-0.181,0.54-0.28,0.86-0.28
				c0.31,0,0.59,0.09,0.85,0.27c0.26,0.181,0.47,0.44,0.62,0.771c0.15,0.34,0.23,0.74,0.23,1.21
				C346.099,482.366,346.019,482.776,345.869,483.116z"/>
			<path style="fill:#FFFFFF;" d="M358.219,479.936c-0.24-0.521-0.58-0.92-1.02-1.2c-0.44-0.28-0.95-0.42-1.54-0.42
				c-0.5,0-0.93,0.1-1.27,0.28c-0.35,0.18-0.68,0.439-1.01,0.789v-2.689c0-0.32-0.08-0.57-0.22-0.74c-0.15-0.18-0.36-0.26-0.63-0.26
				c-0.25,0-0.45,0.09-0.6,0.27c-0.14,0.181-0.21,0.45-0.21,0.811v7.67c0,0.33,0.07,0.58,0.22,0.75c0.15,0.17,0.34,0.26,0.59,0.26
				s0.45-0.09,0.61-0.26c0.16-0.17,0.24-0.42,0.24-0.75v-0.17c0.19,0.22,0.35,0.39,0.46,0.5c0.12,0.109,0.26,0.22,0.43,0.33
				c0.17,0.1,0.37,0.189,0.61,0.25c0.24,0.06,0.49,0.1,0.76,0.1c0.44,0,0.85-0.09,1.22-0.27c0.36-0.181,0.68-0.431,0.93-0.761
				c0.26-0.319,0.46-0.71,0.59-1.149c0.14-0.45,0.2-0.93,0.2-1.47C358.579,481.086,358.459,480.466,358.219,479.936z
				 M356.339,483.517c-0.32,0.39-0.7,0.58-1.14,0.58c-0.52,0-0.94-0.19-1.26-0.57c-0.32-0.37-0.48-0.91-0.48-1.61
				c0-0.47,0.08-0.89,0.23-1.229c0.15-0.351,0.35-0.61,0.61-0.79c0.27-0.181,0.56-0.28,0.9-0.28c0.32,0,0.61,0.1,0.85,0.28
				c0.25,0.18,0.44,0.439,0.57,0.769c0.13,0.34,0.2,0.74,0.2,1.2C356.819,482.586,356.659,483.136,356.339,483.517z"/>
			<path style="fill:#FFFFFF;" d="M365.009,478.696c-0.07-0.12-0.16-0.21-0.28-0.28c-0.12-0.069-0.25-0.109-0.38-0.109
				c-0.19,0-0.33,0.029-0.43,0.1c-0.1,0.059-0.2,0.19-0.29,0.37c-0.09,0.189-0.19,0.439-0.3,0.77l-1.41,4.021l-1.49-4.33
				c-0.1-0.3-0.21-0.53-0.34-0.69c-0.13-0.16-0.32-0.239-0.57-0.239c-0.15,0-0.29,0.04-0.42,0.119c-0.14,0.07-0.25,0.181-0.32,0.31
				c-0.08,0.12-0.12,0.26-0.12,0.41c0,0.149,0.07,0.37,0.2,0.689l2.16,5.44l-0.16,0.399c-0.12,0.28-0.22,0.5-0.32,0.65
				c-0.09,0.15-0.19,0.25-0.31,0.31c-0.11,0.061-0.27,0.091-0.47,0.091c-0.09,0-0.18-0.011-0.29-0.04
				c-0.09-0.021-0.19-0.04-0.28-0.04c-0.24,0-0.42,0.06-0.54,0.17c-0.13,0.109-0.19,0.26-0.19,0.46c0,0.3,0.13,0.5,0.39,0.62
				c0.26,0.109,0.64,0.16,1.16,0.16c0.521,0,0.94-0.08,1.25-0.24c0.32-0.16,0.57-0.391,0.75-0.69c0.19-0.3,0.39-0.71,0.58-1.24
				l2.3-6c0.05-0.159,0.1-0.31,0.14-0.46c0.039-0.149,0.06-0.27,0.08-0.35C365.109,478.946,365.079,478.816,365.009,478.696z"/>
		</g>
		<g>
			<path style="fill:#FFFFFF;" d="M386.319,478.459h0.419v-0.527c0-0.552,0.067-0.987,0.207-1.313
				c0.139-0.324,0.377-0.561,0.71-0.708c0.332-0.147,0.788-0.222,1.367-0.222c1.029,0,1.54,0.249,1.54,0.755
				c0,0.162-0.054,0.302-0.163,0.417c-0.104,0.115-0.232,0.174-0.378,0.174c-0.067,0-0.188-0.013-0.357-0.04
				c-0.161-0.022-0.307-0.038-0.422-0.038c-0.317,0-0.52,0.096-0.614,0.281c-0.086,0.186-0.132,0.453-0.132,0.803v0.418h0.429
				c0.672,0,1.004,0.201,1.004,0.607c0,0.284-0.086,0.468-0.267,0.545c-0.177,0.078-0.423,0.116-0.737,0.116h-0.429v4.656
				c0,0.347-0.082,0.61-0.25,0.792c-0.164,0.185-0.376,0.275-0.639,0.275c-0.249,0-0.455-0.091-0.622-0.275
				c-0.166-0.182-0.247-0.445-0.247-0.792v-4.656h-0.484c-0.263,0-0.462-0.057-0.605-0.178c-0.142-0.115-0.213-0.271-0.213-0.459
				C385.435,478.668,385.73,478.459,386.319,478.459L386.319,478.459z"/>
			<path style="fill:#FFFFFF;" d="M392.072,482.915v1.469c0,0.355-0.09,0.623-0.253,0.8c-0.168,0.18-0.379,0.268-0.636,0.268
				c-0.259,0-0.466-0.089-0.628-0.272c-0.16-0.179-0.244-0.444-0.244-0.796v-4.895c0-0.79,0.284-1.186,0.854-1.186
				c0.294,0,0.503,0.092,0.633,0.276c0.128,0.185,0.199,0.457,0.215,0.819c0.208-0.362,0.423-0.634,0.643-0.819
				c0.225-0.185,0.517-0.276,0.888-0.276c0.372,0,0.727,0.092,1.074,0.276c0.349,0.185,0.522,0.432,0.522,0.735
				c0,0.214-0.075,0.394-0.221,0.53c-0.149,0.142-0.308,0.211-0.479,0.211c-0.067,0-0.225-0.043-0.47-0.122
				c-0.247-0.077-0.467-0.117-0.652-0.117c-0.258,0-0.47,0.069-0.632,0.202c-0.164,0.139-0.291,0.337-0.382,0.601
				c-0.088,0.268-0.148,0.587-0.185,0.952C392.088,481.94,392.072,482.388,392.072,482.915L392.072,482.915z"/>
			<path style="fill:#FFFFFF;" d="M400.889,483.036c-0.16,0-0.29,0.04-0.38,0.12c-0.22,0.2-0.399,0.37-0.54,0.479
				c-0.14,0.131-0.279,0.24-0.449,0.341c-0.16,0.109-0.33,0.189-0.5,0.229c-0.181,0.061-0.37,0.08-0.58,0.08
				c-0.311,0-0.601-0.08-0.86-0.229c-0.26-0.16-0.47-0.391-0.63-0.69c-0.15-0.3-0.23-0.66-0.24-1.06h3.44
				c0.46,0,0.819-0.061,1.069-0.19c0.25-0.14,0.38-0.42,0.38-0.86c0-0.479-0.12-0.939-0.37-1.409c-0.239-0.461-0.609-0.83-1.1-1.12
				c-0.49-0.29-1.08-0.431-1.77-0.431c-0.53,0-1.011,0.08-1.44,0.25c-0.43,0.17-0.8,0.41-1.09,0.73c-0.3,0.32-0.53,0.7-0.68,1.14
				c-0.16,0.45-0.23,0.931-0.23,1.45c0,1.1,0.31,1.98,0.94,2.62c0.619,0.64,1.5,0.96,2.63,0.96c0.489,0,0.93-0.061,1.31-0.19
				c0.38-0.13,0.7-0.29,0.95-0.479c0.25-0.2,0.44-0.4,0.57-0.62c0.12-0.21,0.18-0.39,0.18-0.55c0-0.181-0.06-0.32-0.17-0.42
				C401.219,483.086,401.069,483.036,400.889,483.036z M397.228,479.966c0.28-0.3,0.641-0.449,1.07-0.449
				c0.471,0,0.83,0.149,1.12,0.449c0.28,0.29,0.44,0.74,0.48,1.341h-3.19C396.77,480.716,396.939,480.276,397.228,479.966z"/>
			<path style="fill:#FFFFFF;" d="M408.199,483.036c-0.16,0-0.29,0.04-0.38,0.12c-0.221,0.2-0.4,0.37-0.54,0.479
				c-0.141,0.131-0.28,0.24-0.45,0.341c-0.16,0.109-0.33,0.189-0.51,0.229c-0.17,0.061-0.36,0.08-0.57,0.08
				c-0.31,0-0.6-0.08-0.86-0.229c-0.26-0.16-0.47-0.391-0.619-0.69c-0.16-0.3-0.24-0.66-0.25-1.06h3.44c0.46,0,0.82-0.061,1.07-0.19
				c0.25-0.14,0.38-0.42,0.38-0.86c0-0.479-0.12-0.939-0.37-1.409c-0.24-0.461-0.61-0.83-1.1-1.12c-0.5-0.29-1.08-0.431-1.771-0.431
				c-0.53,0-1.01,0.08-1.44,0.25c-0.439,0.17-0.8,0.41-1.09,0.73c-0.3,0.32-0.529,0.7-0.68,1.14c-0.16,0.45-0.24,0.931-0.24,1.45
				c0,1.1,0.32,1.98,0.95,2.62c0.62,0.64,1.5,0.96,2.63,0.96c0.49,0,0.93-0.061,1.311-0.19c0.38-0.13,0.699-0.29,0.949-0.479
				c0.25-0.2,0.44-0.4,0.56-0.62c0.13-0.21,0.18-0.39,0.18-0.55c0-0.181-0.05-0.32-0.16-0.42
				C408.529,483.086,408.379,483.036,408.199,483.036z M404.529,479.966c0.29-0.3,0.649-0.449,1.08-0.449
				c0.46,0,0.83,0.149,1.119,0.449c0.28,0.29,0.44,0.74,0.481,1.341h-3.19C404.079,480.716,404.249,480.276,404.529,479.966z"/>
			<path style="fill:#FFFFFF;" d="M416.509,481.656c-0.02-0.65-0.149-1.21-0.38-1.7c-0.27-0.53-0.63-0.939-1.08-1.22
				c-0.46-0.28-0.96-0.42-1.5-0.42c-0.45,0-0.85,0.1-1.2,0.29c-0.359,0.189-0.71,0.49-1.04,0.899v-0.21
				c0-0.33-0.069-0.569-0.23-0.739c-0.16-0.171-0.36-0.25-0.61-0.25s-0.449,0.079-0.6,0.239c-0.15,0.17-0.22,0.42-0.22,0.761v7.579
				c0,0.391,0.06,0.671,0.159,0.881c0.11,0.189,0.33,0.29,0.66,0.29c0.561,0,0.84-0.391,0.84-1.16v-2.63
				c0.181,0.22,0.36,0.409,0.551,0.569c0.14,0.12,0.279,0.221,0.43,0.311c0.34,0.2,0.76,0.3,1.26,0.3c0.42,0,0.811-0.08,1.17-0.24
				c0.37-0.17,0.681-0.41,0.95-0.71c0.26-0.31,0.47-0.689,0.63-1.14c0.15-0.45,0.221-0.95,0.221-1.49
				C416.52,481.796,416.52,481.727,416.509,481.656z M414.529,483.076c-0.15,0.34-0.34,0.59-0.601,0.76
				c-0.239,0.17-0.52,0.261-0.81,0.261c-0.06,0-0.12,0-0.17-0.021c-0.42-0.03-0.771-0.229-1.061-0.57
				c-0.33-0.38-0.489-0.93-0.489-1.63c0-0.74,0.159-1.3,0.5-1.69c0.329-0.38,0.739-0.57,1.22-0.57c0.31,0,0.59,0.09,0.84,0.27
				c0.25,0.181,0.44,0.431,0.58,0.771c0.15,0.33,0.22,0.729,0.22,1.19c0,0.43-0.06,0.8-0.19,1.109
				C414.559,482.996,414.549,483.036,414.529,483.076z"/>
			<path style="fill:#FFFFFF;" d="M418.909,478.566c-0.17-0.181-0.38-0.26-0.64-0.26c-0.25,0-0.461,0.079-0.62,0.26
				c-0.16,0.18-0.25,0.439-0.25,0.79v5.029c0,0.341,0.09,0.601,0.25,0.79c0.159,0.181,0.37,0.27,0.62,0.27
				c0.26,0,0.47-0.08,0.64-0.27c0.17-0.18,0.25-0.44,0.25-0.79v-5.079C419.159,478.986,419.079,478.746,418.909,478.566z
				 M418.899,475.986c-0.181-0.15-0.38-0.22-0.61-0.22c-0.23,0-0.441,0.08-0.62,0.239c-0.18,0.16-0.27,0.37-0.27,0.62
				c0,0.271,0.09,0.48,0.27,0.63c0.17,0.15,0.38,0.23,0.62,0.23c0.24,0,0.439-0.08,0.62-0.23c0.17-0.149,0.25-0.359,0.25-0.63
				C419.159,476.347,419.069,476.126,418.899,475.986z"/>
			<path style="fill:#FFFFFF;" d="M424.827,484.648l-1.548-2.552l-0.954,0.9v1.399c0,0.339-0.09,0.598-0.269,0.779
				c-0.175,0.185-0.384,0.275-0.614,0.275c-0.271,0-0.484-0.089-0.638-0.272c-0.153-0.179-0.232-0.444-0.232-0.796v-7.498
				c0-0.388,0.077-0.685,0.224-0.89c0.151-0.207,0.369-0.307,0.646-0.307c0.271,0,0.483,0.093,0.643,0.279
				c0.158,0.183,0.239,0.456,0.239,0.814v4.265l1.977-2.075c0.245-0.255,0.429-0.435,0.56-0.527
				c0.128-0.095,0.283-0.142,0.467-0.142c0.221,0,0.402,0.07,0.553,0.209c0.143,0.14,0.217,0.316,0.217,0.524
				c0,0.257-0.239,0.602-0.715,1.031l-0.933,0.855l1.802,2.835c0.131,0.213,0.229,0.368,0.287,0.479
				c0.058,0.107,0.088,0.217,0.088,0.313c0,0.28-0.077,0.498-0.23,0.661c-0.152,0.161-0.354,0.24-0.601,0.24
				c-0.214,0-0.382-0.055-0.497-0.174C425.185,485.16,425.024,484.95,424.827,484.648L424.827,484.648z"/>
			<path style="fill:#FFFFFF;" d="M428.646,485.451c-0.265,0-0.492-0.086-0.686-0.258c-0.192-0.169-0.291-0.411-0.291-0.722
				c0-0.262,0.094-0.487,0.278-0.675c0.186-0.19,0.412-0.283,0.684-0.283c0.268,0,0.498,0.094,0.692,0.279
				c0.19,0.186,0.286,0.414,0.286,0.679c0,0.307-0.097,0.547-0.286,0.718C429.129,485.365,428.903,485.451,428.646,485.451
				L428.646,485.451z"/>
			<path style="fill:#FFFFFF;" d="M437.389,483.275c0,0.218-0.065,0.453-0.197,0.701c-0.13,0.251-0.331,0.486-0.601,0.712
				c-0.268,0.225-0.604,0.408-1.013,0.544c-0.407,0.137-0.868,0.208-1.376,0.208c-1.089,0-1.938-0.318-2.547-0.949
				c-0.607-0.635-0.912-1.484-0.912-2.549c0-0.723,0.138-1.359,0.419-1.914c0.276-0.552,0.681-0.98,1.208-1.283
				c0.527-0.304,1.162-0.454,1.894-0.454c0.456,0,0.873,0.066,1.255,0.2c0.38,0.132,0.7,0.306,0.966,0.515
				c0.262,0.213,0.465,0.436,0.604,0.672c0.14,0.238,0.208,0.462,0.208,0.669c0,0.209-0.077,0.388-0.232,0.534
				c-0.159,0.146-0.35,0.22-0.568,0.22c-0.148,0-0.27-0.039-0.367-0.113c-0.097-0.076-0.206-0.196-0.324-0.367
				c-0.215-0.324-0.438-0.57-0.675-0.731c-0.232-0.164-0.528-0.245-0.89-0.245c-0.517,0-0.939,0.202-1.257,0.608
				c-0.316,0.403-0.477,0.962-0.477,1.663c0,0.331,0.043,0.637,0.124,0.913c0.079,0.276,0.197,0.513,0.353,0.708
				c0.156,0.194,0.342,0.342,0.561,0.443c0.22,0.104,0.461,0.152,0.721,0.152c0.354,0,0.655-0.081,0.905-0.244
				c0.255-0.163,0.477-0.411,0.669-0.747c0.107-0.197,0.222-0.351,0.345-0.463c0.124-0.111,0.277-0.169,0.458-0.169
				c0.215,0,0.393,0.083,0.533,0.245C437.316,482.917,437.389,483.093,437.389,483.275L437.389,483.275z"/>
			<path style="fill:#FFFFFF;" d="M444.728,480.426c-0.159-0.43-0.39-0.81-0.699-1.13c-0.311-0.319-0.681-0.56-1.11-0.729
				c-0.44-0.181-0.92-0.26-1.45-0.26c-0.529,0-1.01,0.079-1.439,0.25c-0.431,0.17-0.801,0.409-1.11,0.729
				c-0.3,0.311-0.54,0.69-0.7,1.13c-0.16,0.44-0.24,0.931-0.24,1.46c0,0.53,0.08,1.01,0.231,1.45c0.17,0.43,0.4,0.81,0.72,1.13
				c0.3,0.32,0.681,0.57,1.101,0.74c0.42,0.17,0.899,0.26,1.439,0.26c0.53,0,1.01-0.09,1.45-0.26c0.42-0.17,0.79-0.41,1.101-0.73
				c0.31-0.319,0.55-0.699,0.709-1.14c0.16-0.44,0.24-0.93,0.24-1.45C444.969,481.347,444.889,480.866,444.728,480.426z
				 M442.739,483.536c-0.32,0.41-0.74,0.61-1.271,0.61c-0.359,0-0.66-0.09-0.92-0.271c-0.26-0.19-0.46-0.45-0.6-0.8
				c-0.141-0.34-0.21-0.74-0.21-1.2c0-0.46,0.069-0.87,0.21-1.22c0.14-0.34,0.34-0.61,0.609-0.79c0.261-0.17,0.56-0.26,0.91-0.26
				c0.53,0,0.95,0.2,1.271,0.6c0.31,0.4,0.47,0.96,0.47,1.67C443.209,482.586,443.049,483.136,442.739,483.536z"/>
			<path style="fill:#FFFFFF;" d="M451.677,482.008v2.336c0,0.371-0.082,0.645-0.251,0.832c-0.169,0.185-0.387,0.276-0.662,0.276
				c-0.267,0-0.484-0.092-0.645-0.276c-0.168-0.188-0.252-0.461-0.252-0.832v-2.8c0-0.442-0.015-0.787-0.043-1.033
				c-0.031-0.239-0.114-0.443-0.246-0.598c-0.133-0.16-0.345-0.238-0.631-0.238c-0.576,0-0.953,0.196-1.136,0.597
				c-0.182,0.391-0.275,0.958-0.275,1.699v2.373c0,0.364-0.083,0.642-0.245,0.829c-0.169,0.185-0.385,0.279-0.654,0.279
				c-0.268,0-0.485-0.094-0.655-0.279c-0.17-0.188-0.255-0.465-0.255-0.829v-5.028c0-0.331,0.076-0.583,0.227-0.753
				c0.155-0.174,0.356-0.259,0.603-0.259c0.242,0,0.441,0.084,0.604,0.241c0.16,0.161,0.24,0.384,0.24,0.667v0.166
				c0.308-0.362,0.634-0.631,0.978-0.8c0.351-0.177,0.733-0.262,1.161-0.262c0.441,0,0.82,0.089,1.137,0.264
				c0.318,0.177,0.579,0.444,0.787,0.798c0.298-0.358,0.616-0.625,0.955-0.8c0.339-0.175,0.714-0.262,1.127-0.262
				c0.479,0,0.896,0.097,1.242,0.284c0.346,0.189,0.605,0.46,0.778,0.81c0.149,0.32,0.224,0.82,0.224,1.503v3.431
				c0,0.371-0.083,0.645-0.249,0.832c-0.167,0.185-0.39,0.276-0.664,0.276c-0.268,0-0.483-0.094-0.653-0.279
				c-0.17-0.188-0.255-0.465-0.255-0.829v-2.956c0-0.378-0.017-0.68-0.047-0.906c-0.032-0.229-0.12-0.421-0.26-0.574
				c-0.144-0.154-0.359-0.232-0.646-0.232c-0.232,0-0.452,0.072-0.66,0.208c-0.208,0.135-0.371,0.323-0.488,0.551
				C451.743,480.73,451.677,481.256,451.677,482.008L451.677,482.008z"/>
		</g>
		<g>
			<path style="fill:#FFFFFF;" d="M369.872,481.453c-0.002-0.003-0.002-0.006-0.002-0.012
				C369.871,481.447,369.871,481.45,369.872,481.453z"/>
			<path style="fill:#FFFFFF;" d="M369.961,482.016c0.001,0,0.001,0,0.002,0c-0.034-0.16-0.06-0.319-0.081-0.476
				C369.903,481.698,369.929,481.857,369.961,482.016z"/>
			<path style="fill:#FFFFFF;" d="M370.542,483.647c-0.004-0.007-0.007-0.015-0.012-0.023
				C370.535,483.632,370.539,483.64,370.542,483.647z"/>
			<path style="fill:#FFFFFF;" d="M370.487,483.538c-0.015-0.03-0.03-0.061-0.044-0.091
				C370.457,483.478,370.472,483.508,370.487,483.538z"/>
			<path style="fill:#FFFFFF;" d="M370.124,482.644c0.086,0.271,0.19,0.534,0.31,0.785c-0.122-0.256-0.224-0.52-0.308-0.785
				C370.126,482.644,370.125,482.644,370.124,482.644z"/>
			<path style="fill:#FFFFFF;" d="M376.675,474.72c0.34,0,0.59,0.026,0.878,0.075l0.081-0.517c0,0-0.794-0.244-1.837-0.159
				l-0.082-0.281c0.324-0.068,0.567-0.356,0.567-0.701c0-0.395-0.321-0.714-0.716-0.714c-0.395,0-0.716,0.319-0.716,0.714
				c0,0.345,0.243,0.633,0.567,0.701l0.09,0.314c-1.107,0.152-1.989,0.585-1.989,0.585l0.156,0.478
				c0.67-0.224,1.252-0.358,1.778-0.416C375.97,474.743,376.358,474.72,376.675,474.72z"/>
			<path style="fill:#FFFFFF;" d="M370.529,477.334l0.004-0.005c0.026-0.034,0.051-0.065,0.077-0.097l-0.212-0.153l-0.331-0.241
				c-0.019,0.025-0.539,0.504-0.95,1.388c-0.018-0.027-0.038-0.055-0.061-0.081c-0.123-0.134-0.295-0.202-0.514-0.198
				c-0.003,0-0.006,0-0.01,0c-0.135,0-0.228-0.046-0.289-0.101c0.061-0.076,0.097-0.173,0.097-0.28c0-0.249-0.203-0.453-0.454-0.453
				c-0.25,0-0.453,0.204-0.453,0.453c0,0.251,0.204,0.454,0.453,0.454c0.04,0,0.077-0.007,0.113-0.014
				c0.111,0.123,0.288,0.231,0.547,0.226c0.133-0.001,0.231,0.033,0.296,0.105c0.075,0.082,0.1,0.2,0.108,0.29
				c-0.001,0.001-0.001,0.003-0.002,0.003c-0.295,0.807-0.211,1.81-0.211,1.81l0.716,0.028c0.015-0.365,0.067-1.004,0.252-1.512
				C370.064,477.975,370.511,477.36,370.529,477.334z"/>
			<path style="fill:#FFFFFF;" d="M382.909,475.318c-0.249,0-0.453,0.202-0.453,0.453c0,0.039,0.006,0.076,0.016,0.112
				c-0.124,0.112-0.232,0.29-0.228,0.549c0.002,0.134-0.032,0.23-0.105,0.296c-0.058,0.051-0.13,0.078-0.2,0.096
				c-0.533-0.747-1.19-1.203-1.19-1.203l-0.514,0.551c0.389,0.353,0.785,0.797,1.171,1.349c0.267,0.382,0.542,0.875,0.771,1.366
				l0.693-0.33c0,0-0.316-0.783-0.763-1.485c0.077-0.027,0.155-0.069,0.225-0.13c0.136-0.123,0.202-0.296,0.198-0.514
				c-0.001-0.142,0.045-0.236,0.101-0.3c0.077,0.06,0.174,0.098,0.279,0.098c0.252,0,0.454-0.204,0.454-0.454
				C383.363,475.521,383.161,475.318,382.909,475.318z"/>
			<path style="fill:#FFFFFF;" d="M381.108,481.555c-0.955,0.466-2.527,1.08-4.596,1.369c-0.812,0.112-1.599,0.154-2.324,0.154
				c-0.942,0-1.775-0.07-2.414-0.151c-0.73-0.092-1.3-0.204-1.648-0.283c0.083,0.266,0.186,0.529,0.308,0.785
				c0.002,0.007,0.005,0.014,0.008,0.019c0.015,0.029,0.029,0.061,0.044,0.091c0.015,0.029,0.029,0.059,0.044,0.086
				c0.004,0.008,0.008,0.016,0.012,0.023c0.205,0.387,0.452,0.742,0.732,1.05c0.976,1.067,1.97,1.236,1.979,1.237l0.016,0.002
				l0.015,0.005c0.009,0.004,0.89,0.288,2.23,0.288c1.319,0,2.613-0.266,3.845-0.791c0.913-0.467,1.777-1.177,2.205-1.81
				c0.331-0.489,0.57-1.012,0.712-1.555c0.075-0.288,0.135-0.75,0.1-1.236C382.108,481.018,381.684,481.274,381.108,481.555z"/>
			<path style="fill:#FFFFFF;" d="M381.089,477.736c-1.35-1.94-2.819-2.44-3.569-2.56c-0.29-0.05-0.521-0.069-0.841-0.069
				c-0.31,0-0.68,0.02-1.189,0.069c-0.5,0.051-1.06,0.19-1.71,0.41c-0.92,0.3-1.74,0.78-2.39,1.38l-0.02,0.021
				c-0.1,0.09-0.3,0.28-0.53,0.57c-0.03,0.04-0.45,0.63-0.77,1.529c-0.25,0.681-0.24,1.66-0.24,1.67c0,0.23,0.02,0.46,0.04,0.69
				c0,0,0,0,0,0.01c0.01,0.03,0.01,0.05,0.01,0.08c0.02,0.16,0.05,0.32,0.08,0.48c0.48,0.119,3.31,0.779,6.47,0.34
				c1.99-0.28,3.49-0.86,4.41-1.311c0.76-0.359,1.25-0.699,1.44-0.84C382.089,479.517,381.569,478.416,381.089,477.736z
				 M373.569,480.876c-1.06,0-1.91-0.85-1.91-1.91c0-1.05,0.85-1.899,1.91-1.899c1.05,0,1.91,0.85,1.91,1.899
				C375.479,480.026,374.619,480.876,373.569,480.876z M379.149,479.477c-0.65,0-1.181-0.53-1.181-1.19c0-0.65,0.53-1.18,1.181-1.18
				c0.649,0,1.18,0.529,1.18,1.18C380.329,478.946,379.799,479.477,379.149,479.477z"/>
		</g>
	</g>
</g>
</svg>
