<svg xmlns="http://www.w3.org/2000/svg" viewBox="195.24 89.02 378.2 399.04">
  <path style="fill: #fff; fill-rule: evenodd;" d="M 323.633 290.501 L 323.972 300.118 C 323.972 325.001 317.43 326.66 297.43 326.66 L 242.374 326.66 C 238.604 326.66 236.945 325.001 236.945 321.23 L 236.945 306.089 C 236.945 302.319 238.604 300.66 242.374 300.66 L 292.498 300.66 C 296.268 300.66 297.927 299.001 297.927 295.231 L 297.979 290.501 L 263.487 290.654 C 243.487 290.654 236.748 284.501 236.748 264.501 L 236.945 223.494 C 236.945 219.723 238.604 218.065 242.375 218.065 L 318.542 218.065 C 322.313 218.065 323.972 219.724 323.972 223.494 L 323.972 246.864 C 323.972 250.632 322.313 252.293 318.543 252.293 L 271.173 252.293 L 271.173 258.261 C 271.173 262.438 272.832 263.881 276.602 264.501 L 297.43 264.501 C 317.43 264.501 323.633 270.501 323.633 290.501 Z M 431.458 326.66 C 427.687 326.66 426.028 322.889 426.028 321.23 L 426.028 223.494 L 431.458 218.065 L 507.625 218.065 C 511.396 218.065 513.055 219.724 513.055 223.494 L 513.055 321.23 C 513.055 325.001 511.396 326.66 507.625 326.66 L 431.458 326.66 Z M 465.458 292.66 C 461.687 292.66 460.028 288.889 460.028 287.23 L 460.028 257.494 C 460.028 253.723 461.687 252.065 465.458 252.065 L 475.625 252.065 C 479.396 252.065 481.055 251.724 481.055 257.494 L 481.055 287.23 C 481.055 293.001 479.396 292.66 475.625 292.66 L 465.458 292.66 Z"></path>
  <path style="fill:#e0e0e0" d="M 316.01 241.673 C 312.82 240.633 309.21 242.033 307.86 245.103 C 306.8 247.512 307.779 250.435 309.408 252.293 L 318.543 252.293 C 322.313 252.293 323.972 250.632 323.976 246.794 l 0 0 L 323.976 244.2833 L 316.01 241.673 Z M 431.46 218.063 C 427.69 218.063 426.03 219.723 426.03 223.493 L 426.03 240.233 C 431.964 237.416 437.151 233.24 441.17 228.043 L 443.62 228.993 C 444.99 229.533 446.55 228.853 447.08 227.473 L 450.76 218.063 L 431.46 218.063 Z M 450.73 260.713 C 448.03 258.713 444.2 259.293 441.95 261.783 L 431.14 273.753 L 426.03 264.243 L 426.03 276.433 C 426.03 282.513 425.599 281.746 425.926 288.763 C 427.816 291.752 433.14 290.713 434.56 289.143 L 451.68 270.203 C 454.227 267.38 453.786 262.975 450.73 260.713"></path>
  <path style="fill:#fff" d="M445.402 255.391c-2.694-2.005-6.526-1.426-8.777 1.066l-10.814 11.969-8.572-15.971a12.8 12.8 0 0 0-6.652-5.892l.006-.014-47.161-18.427-.005.014c-4.13-1.614-8.577-.935-11.978 1.41l-.006-.009-.332.227-.184.139-19.275 13.31-20.965-6.865c-3.191-1.045-6.805.355-8.148 3.433a6.43 6.43 0 0 0 3.884 8.702l24.261 7.944c1.984.65 4.044.26 5.64-.839l.016.023 11.826-8.179 3.964-2.742c1.996-1.38 4.573.657 3.689 2.917l-1.751 4.482-31.888 81.614 17.254 6.742 17.118-43.812a2.24 2.24 0 0 1 3.238-1.109 25.4 25.4 0 0 0 3.772 1.853c1.372.536 2.738.925 4.067 1.203 1.343.281 2.083 1.74 1.584 3.018l-17.112 43.796 17.24 6.736 31.888-81.614 2.741-7.017c.763-1.953 3.465-2.116 4.457-.268l3.565 6.64 6.811 12.67.018-.01c.34.635.77 1.233 1.335 1.744a6.43 6.43 0 0 0 9.081-.46l17.115-18.942a6.43 6.43 0 0 0-.95-9.482"></path>
  <circle transform="rotate(-52.562 401.277 200.93)" style="fill:#424242" cx="401.244" cy="200.924" r="33.091"></circle>
  <path style="fill:#bdbdbd" d="m368.92 172.428-.783-.306a1.465 1.465 0 0 0-1.897.831l-1.222 3.128 2.147.839z"></path>
  <path style="fill:#e0e0e0" d="m444.716 207.219-6.142-2.4-6.426 16.448 6.142 2.4a2.677 2.677 0 0 0 3.468-1.52l4.478-11.46a2.68 2.68 0 0 0-1.52-3.468M361.55 177.6l-4.478 11.46a2.677 2.677 0 0 0 1.52 3.468l6.142 2.4 6.426-16.448-6.142-2.4a2.677 2.677 0 0 0-3.468 1.52"></path>
  <path transform="rotate(21.341 367.011 176.501)" style="fill:#757576" d="M365.009 176.129h3.917v.688h-3.917z"></path>
  <path transform="rotate(21.341 373.657 159.181)" style="fill:#616262" d="M372.912 145.123h1.485v28.119h-1.485z"></path>
  <path style="fill:#fff" d="M380.928 146.93a2.253 2.253 0 0 1-4.195-1.639 2.253 2.253 0 0 1 4.195 1.639"></path>
  <path style="fill:#e0e0e0" d="M355.178 340.491c3.342-3.229 7.903-3.012 12.59-1.181 6.37 2.489 10.556 7.009 7.399 15.091l-18.337-7.165-4.731-1.848 2.068-5.292zm-14.688-5.739c-.268-4.639-3.768-7.572-8.454-9.403-6.37-2.489-12.512-2.004-15.67 6.078l18.338 7.165 4.731 1.848 2.068-5.292z"></path>
  <path style="fill:#fff" d="M417.964 158.129c-21.532-8.413-45.806 2.222-54.219 23.754s2.222 45.806 23.754 54.219 45.806-2.222 54.219-23.754c8.413-21.531-2.222-45.806-23.754-54.219m-28.763 73.616c-15.899-6.212-23.752-24.137-17.54-40.037s24.137-23.753 40.037-17.54c15.899 6.212 23.753 24.137 17.54 40.037-6.212 15.899-24.137 23.752-40.037 17.54"></path>
  <path style="fill:#fff" d="m405.697 243.213-36.396-14.221 3.085-7.896 15.807 13.003 20.589 1.218z"></path>
  <path style="fill:#ef5350" d="m406.603 241.503-36.809-14.382a1.07 1.07 0 0 0-1.388.608l-.404 1.035a1.07 1.07 0 0 0 .608 1.388l36.809 14.382a1.07 1.07 0 0 0 1.388-.608l.404-1.035a1.07 1.07 0 0 0-.608-1.388"></path>
  <path style="fill:#fff" d="M397.122 175.021c-8.822.7-13.364 6.947-11.698 8.714 1.572 1.92 6.664.456 12.348.142 5.653-.578 11.213.313 12.534-1.764 1.443-1.991-4.359-7.762-13.184-7.092m-18.945 11.474c-1.826 2.274-1.712 5.074-.233 5.772 1.485.711 3.501-.37 4.869-2.051 1.349-1.702 1.867-3.823.84-5.114-1.011-1.281-3.651-.882-5.476 1.393"></path>
  <path style="fill:#eee" d="m393.081 258.279-24.721-9.659a1.82 1.82 0 0 0-2.356 1.032l-6.98 17.865a1.82 1.82 0 0 0 1.032 2.356l24.721 9.659a1.82 1.82 0 0 0 2.356-1.032l6.98-17.865a1.82 1.82 0 0 0-1.032-2.356"></path>
  <path style="fill:#e0e0e0" d="m349.002 304.699-13.68-5.345a1.71 1.71 0 0 0-2.217.971l-3.287 8.414a1.71 1.71 0 0 0 .971 2.217l13.68 5.345a1.71 1.71 0 0 0 2.217-.971l3.287-8.414a1.71 1.71 0 0 0-.971-2.217m20.292 7.929 13.68 5.345a1.71 1.71 0 0 1 .972 2.217l-3.287 8.414a1.71 1.71 0 0 1-2.217.971l-13.68-5.345a1.71 1.71 0 0 1-.971-2.217l3.287-8.414a1.71 1.71 0 0 1 2.216-.971"></path>
  <path transform="rotate(21.341 378.547 259.094)" style="fill:#ef5350" d="M369.604 257.627h17.838v2.896h-17.838z"></path>
  <path transform="rotate(21.341 376.593 264.096)" style="fill:#ef5350" d="M367.65 262.628h17.838v2.896H367.65z"></path>
  <path transform="rotate(21.341 374.638 269.098)" style="fill:#ef5350" d="M365.696 267.629h17.838v2.896h-17.838z"></path>
  <text transform="translate(400.282 341.63)" style="fill: rgb(255, 255, 255); font-family: Impact; font-size: 13px; white-space: pre;">INTERNAL SERVER ERROR</text>
  <path style="fill:#fafafa" d="M472.13 157.676h3.436a.75.75 0 0 0 .75-.75v-3.351c0-.816.611-1.547 1.426-1.59a1.51 1.51 0 0 1 1.588 1.505v3.436c0 .414.336.75.75.75h3.351c.816 0 1.547.611 1.59 1.426a1.507 1.507 0 0 1-1.505 1.588h-3.436a.75.75 0 0 0-.75.75v3.351c0 .816-.611 1.547-1.426 1.59a1.507 1.507 0 0 1-1.588-1.505v-3.436a.75.75 0 0 0-.75-.75h-3.351c-.816 0-1.547-.611-1.59-1.426a1.51 1.51 0 0 1 1.505-1.588M238.452 336.479h3.436a.75.75 0 0 0 .75-.75v-3.351c0-.816.611-1.547 1.426-1.59a1.507 1.507 0 0 1 1.588 1.505v3.436c0 .414.336.75.75.75h3.351c.816 0 1.547.611 1.59 1.426a1.507 1.507 0 0 1-1.505 1.588h-3.436a.75.75 0 0 0-.75.75v3.351c0 .816-.611 1.547-1.426 1.59a1.507 1.507 0 0 1-1.588-1.505v-3.436a.75.75 0 0 0-.75-.75h-3.351c-.816 0-1.547-.611-1.59-1.426a1.507 1.507 0 0 1 1.505-1.588m73.704-153.606h3.436a.75.75 0 0 0 .75-.75v-3.351c0-.816.611-1.547 1.426-1.59a1.507 1.507 0 0 1 1.588 1.505v3.436c0 .414.336.75.75.75h3.351c.816 0 1.547.611 1.59 1.426a1.507 1.507 0 0 1-1.505 1.588h-3.436a.75.75 0 0 0-.75.75v3.351c0 .816-.611 1.547-1.426 1.59a1.51 1.51 0 0 1-1.588-1.505v-3.436a.75.75 0 0 0-.75-.75h-3.351c-.816 0-1.547-.611-1.59-1.426a1.51 1.51 0 0 1 1.505-1.588m-15.127-39.624h.738a.954.954 0 0 0 .954-.954v-.737a.61.61 0 0 1 1.218 0v.737c0 .527.427.954.954.954h.737a.61.61 0 0 1 0 1.218h-.737a.954.954 0 0 0-.954.954v.737a.61.61 0 0 1-1.218 0v-.737a.954.954 0 0 0-.954-.954h-.738a.61.61 0 0 1 0-1.218m208.811 219.33h.737a.954.954 0 0 0 .954-.954v-.738a.61.61 0 0 1 1.218 0v.738c0 .527.427.954.954.954h.737a.61.61 0 0 1 0 1.218h-.737a.954.954 0 0 0-.954.954v.737a.609.609 0 1 1-1.218 0v-.737a.954.954 0 0 0-.954-.954h-.737a.61.61 0 0 1 0-1.218m46.658-162.964h.738a.954.954 0 0 0 .954-.954v-.737a.61.61 0 0 1 1.218 0v.737c0 .527.427.954.954.954h.737a.61.61 0 0 1 0 1.218h-.737a.954.954 0 0 0-.954.954v.737a.61.61 0 0 1-1.218 0v-.737a.954.954 0 0 0-.954-.954h-.738a.61.61 0 0 1 0-1.218m-69.775-89.224h.737a.954.954 0 0 0 .954-.954v-.737a.61.61 0 0 1 1.218 0v.738c0 .527.427.954.954.954h.737a.609.609 0 1 1 0 1.218h-.737a.954.954 0 0 0-.954.954v.737a.61.61 0 0 1-1.218 0v-.737a.954.954 0 0 0-.954-.954h-.737a.61.61 0 0 1 0-1.219M232.252 191.42a1.069 1.069 0 1 1 0 2.138 1.069 1.069 0 0 1 0-2.138m221.086 173.607a1.07 1.07 0 1 1-.001 2.139 1.07 1.07 0 0 1 .001-2.139m-146.111-5.814a1.07 1.07 0 1 1 .175 2.131 1.07 1.07 0 0 1-.175-2.131M542.966 134.02a1.069 1.069 0 1 1 0 2.138 1.069 1.069 0 0 1 0-2.138M201.46 270.291a2.072 2.072 0 1 1 0 4.144 2.072 2.072 0 0 1 0-4.144m-4.144-117.115a2.072 2.072 0 1 1 0 4.145 2.072 2.072 0 0 1 0-4.145m214.201-64.16a2.072 2.072 0 1 1 0 4.145 2.072 2.072 0 0 1 0-4.145"></path>
  <circle style="fill:#fafafa" cx="572.378" cy="285.373" r="1.069"></circle>
  <path style="fill:#fafafa" d="M417.399 306.759a1.069 1.069 0 1 1 0 2.138 1.069 1.069 0 0 1 0-2.138M263.971 109.931a1.07 1.07 0 1 1-.08 2.137 1.07 1.07 0 0 1 .08-2.137"></path>
  <g></g>
  <path style="fill:#fff" d="M300.869 475.946c-.14-.17-.34-.25-.61-.25s-.47.09-.62.27c-.14.191-.21.46-.21.82v2.6q-.495-.54-1.02-.81c-.35-.17-.77-.26-1.28-.26-.87 0-1.58.31-2.12.92-.53.62-.8 1.47-.8 2.57 0 .52.07 1 .2 1.449.14.45.33.841.6 1.17.26.33.57.58.93.761.35.18.74.27 1.16.27.32 0 .62-.05.88-.14.27-.08.52-.21.75-.38s.46-.391.7-.66v.17c0 .32.08.57.23.75.16.17.36.26.6.26s.44-.09.6-.25c.15-.17.23-.42.23-.76v-7.75c0-.33-.07-.58-.22-.75m-1.77 7.17c-.15.33-.35.58-.61.74a1.55 1.55 0 0 1-1.69-.021c-.26-.17-.46-.42-.61-.75-.14-.34-.22-.739-.22-1.22 0-.45.07-.85.21-1.19s.34-.6.59-.779a1.49 1.49 0 0 1 1.72-.01c.26.181.46.44.61.771.16.34.23.74.23 1.21 0 .499-.07.909-.23 1.249m8.82-.08q-.255 0-.39.12c-.22.2-.4.37-.53.49-.14.12-.29.229-.45.34-.17.1-.33.18-.51.229-.17.051-.36.07-.57.07-.32 0-.6-.08-.86-.229q-.39-.226-.63-.69c-.16-.3-.24-.66-.24-1.05h3.44c.46 0 .81-.07 1.07-.2.25-.13.38-.42.38-.86 0-.479-.13-.939-.37-1.399s-.61-.84-1.11-1.13c-.49-.29-1.08-.431-1.76-.431-.53 0-1.01.08-1.44.25-.44.17-.8.42-1.1.73-.29.32-.52.7-.67 1.149q-.24.66-.24 1.44c0 1.1.32 1.98.94 2.62.63.64 1.51.97 2.64.97.49 0 .93-.07 1.31-.2s.69-.29.94-.479c.25-.2.44-.4.57-.61.12-.22.18-.399.18-.56 0-.181-.05-.32-.16-.42a.65.65 0 0 0-.44-.15m-3.67-3.07q.42-.45 1.08-.449.69 0 1.11.449c.28.301.44.75.49 1.351h-3.19q.09-.885.51-1.351m10.67 2.33c-.18-.25-.44-.47-.79-.649-.34-.19-.79-.351-1.33-.481-.46-.109-.82-.21-1.08-.28-.27-.079-.47-.18-.63-.3a.54.54 0 0 1-.23-.45c0-.199.1-.369.31-.51.22-.13.48-.2.8-.2.31 0 .55.051.73.16.18.101.34.24.47.41.16.2.31.36.43.46.13.101.28.16.46.16.25 0 .45-.07.58-.2.14-.13.2-.29.2-.49 0-.19-.06-.38-.19-.569-.12-.19-.31-.37-.55-.53s-.54-.28-.91-.38a5 5 0 0 0-1.22-.14c-.58 0-1.08.09-1.49.279q-.615.285-.93.75c-.21.311-.31.65-.31 1 0 .391.11.73.34 1 .23.271.53.49.91.65s.87.32 1.48.47c.53.13.92.271 1.15.41.24.14.35.37.35.67 0 .21-.11.38-.33.54q-.345.24-.87.24c-.43 0-.78-.08-1.03-.23-.25-.16-.46-.39-.65-.71-.08-.16-.18-.29-.28-.38s-.24-.13-.42-.13c-.21 0-.39.07-.52.2-.14.14-.21.31-.21.5 0 .29.11.58.32.87.22.29.55.529 1 .729.45.19.99.29 1.62.29q.99 0 1.68-.27c.47-.181.82-.44 1.05-.79.24-.34.35-.761.35-1.24 0-.319-.08-.609-.26-.859m2.68-3.72a.84.84 0 0 0-.64-.27q-.39 0-.63.27-.24.255-.24.78v5.029c0 .341.08.601.24.79.16.181.37.28.63.28s.47-.09.64-.27.25-.45.25-.801v-5.079c0-.309-.08-.559-.25-.729m-.02-2.59a.92.92 0 0 0-.6-.22.86.86 0 0 0-.62.25.77.77 0 0 0-.27.609c0 .28.09.49.26.641q.27.222.63.22c.24 0 .44-.07.61-.22.17-.16.26-.37.26-.641q0-.416-.27-.639m7.8 2.65c-.11-.22-.34-.329-.68-.329-.23 0-.43.09-.58.25-.15.17-.22.409-.22.71v.239q-.465-.615-1.02-.899c-.36-.19-.79-.29-1.29-.29-.42 0-.8.08-1.15.229-.35.141-.65.36-.92.66-.26.29-.47.65-.61 1.07-.15.43-.22.899-.22 1.43 0 .71.12 1.33.36 1.87.23.54.57.96 1.01 1.26.44.311.95.46 1.54.46.49 0 .91-.1 1.27-.3.35-.2.66-.49.93-.86-.01.57-.02.99-.04 1.25-.01.261-.07.5-.17.73s-.28.4-.53.53-.6.189-1.06.189c-.22 0-.42-.02-.59-.06s-.32-.101-.44-.19c-.12-.08-.24-.18-.34-.3l-.29-.35c-.19-.23-.42-.34-.68-.34a.75.75 0 0 0-.52.199.68.68 0 0 0-.22.53c0 .28.13.55.38.82.26.269.63.489 1.1.66.48.17 1.02.25 1.63.25.66 0 1.21-.061 1.65-.2.45-.13.81-.33 1.08-.61.28-.27.48-.62.6-1.04s.19-.92.19-1.51v-5.1c0-.418-.06-.738-.17-.958m-1.79 4.41c-.16.311-.37.551-.63.7-.26.16-.54.24-.83.24-.49 0-.9-.18-1.21-.55-.31-.36-.46-.9-.46-1.61s.15-1.25.45-1.63.7-.58 1.21-.58.93.2 1.24.6q.48.6.48 1.681c0 .45-.09.83-.25 1.149m9.31-2.89c-.03-.24-.11-.48-.22-.691a1.95 1.95 0 0 0-.82-.859c-.36-.2-.78-.3-1.24-.3-.48 0-.9.1-1.27.29-.1.05-.19.109-.29.18a3.5 3.5 0 0 0-.72.72v-.22c0-.21-.04-.391-.11-.53a.8.8 0 0 0-.3-.33.9.9 0 0 0-.42-.109c-.25 0-.45.079-.6.25-.15.159-.22.409-.22.75v5.079c0 .341.08.601.25.79.16.181.37.28.62.28.26 0 .48-.09.64-.27.17-.181.25-.45.25-.801v-2.199c0-.721.04-1.21.13-1.471.12-.33.31-.58.56-.77.26-.19.55-.28.86-.28.48 0 .8.15.96.46s.24.75.24 1.33v2.93c0 .341.09.601.25.79.16.181.37.28.64.28.25 0 .46-.09.62-.27.17-.181.25-.45.25-.801v-3.27q0-.582-.06-.958m6.87 2.88c-.17 0-.29.04-.38.12-.22.2-.4.37-.54.49s-.29.229-.45.34c-.16.1-.33.18-.5.229-.17.051-.35.07-.55.07h-.03c-.31 0-.6-.08-.86-.229s-.47-.381-.62-.69c-.03-.06-.06-.11-.08-.17v-.01c-.11-.261-.16-.56-.17-.87h3.44c.46 0 .82-.07 1.07-.2s.38-.42.38-.86c0-.479-.12-.939-.37-1.399-.24-.46-.61-.84-1.1-1.13q-.735-.433-1.77-.431c-.53 0-1.01.08-1.44.25a2.99 2.99 0 0 0-1.77 1.879c-.15.44-.23.921-.23 1.44 0 1.1.31 1.98.94 2.62.62.64 1.5.97 2.63.97.49 0 .93-.07 1.31-.2.01 0 .03-.01.04-.01.36-.13.66-.29.91-.47.25-.2.43-.4.56-.61.12-.22.19-.399.19-.56a.54.54 0 0 0-.17-.42.64.64 0 0 0-.44-.149m-3.66-3.07c.28-.3.64-.449 1.07-.449q.69 0 1.11.449c.29.301.45.75.49 1.351h-3.19c.06-.59.23-1.041.52-1.351m11.53-4.02c-.14-.17-.35-.25-.61-.25q-.408 0-.62.27c-.14.191-.22.46-.22.82v2.6c-.33-.359-.66-.63-1.01-.81-.35-.17-.78-.26-1.28-.26-.88 0-1.58.31-2.12.92-.54.62-.81 1.47-.81 2.57 0 .52.07 1 .21 1.449.13.45.33.841.59 1.17.26.33.57.58.93.761q.54.27 1.17.27c.32 0 .61-.05.88-.14.27-.08.52-.21.75-.38q.345-.256.69-.66v.17q0 .48.24.75c.16.17.35.26.6.26.24 0 .44-.09.59-.25.16-.17.24-.42.24-.76v-7.75c0-.33-.08-.58-.22-.75m-1.77 7.17c-.15.33-.36.58-.61.74-.26.16-.54.24-.85.24-.3 0-.58-.091-.84-.261s-.46-.42-.61-.75c-.15-.34-.22-.739-.22-1.22 0-.45.07-.85.21-1.19s.33-.6.59-.779c.25-.181.54-.28.86-.28.31 0 .59.09.85.27s.47.44.62.771c.15.34.23.74.23 1.21 0 .499-.08.909-.23 1.249m12.35-3.18q-.36-.78-1.02-1.2c-.44-.28-.95-.42-1.54-.42-.5 0-.93.1-1.27.28-.35.18-.68.439-1.01.789v-2.689c0-.32-.08-.57-.22-.74-.15-.18-.36-.26-.63-.26q-.375 0-.6.27-.21.27-.21.811v7.67c0 .33.07.58.22.75s.34.26.59.26.45-.09.61-.26q.24-.255.24-.75v-.17c.19.22.35.39.46.5.12.109.26.22.43.33.17.1.37.189.61.25.24.06.49.1.76.1.44 0 .85-.09 1.22-.27.36-.181.68-.431.93-.761.26-.319.46-.71.59-1.149.14-.45.2-.93.2-1.47 0-.721-.12-1.341-.36-1.871m-1.88 3.581c-.32.39-.7.58-1.14.58q-.78 0-1.26-.57c-.32-.37-.48-.91-.48-1.61 0-.47.08-.89.23-1.229.15-.351.35-.61.61-.79.27-.181.56-.28.9-.28.32 0 .61.1.85.28.25.18.44.439.57.769.13.34.2.74.2 1.2q0 1.078-.48 1.65m8.67-4.821a.75.75 0 0 0-.28-.28.8.8 0 0 0-.38-.109c-.19 0-.33.029-.43.1-.1.059-.2.19-.29.37-.09.189-.19.439-.3.77l-1.41 4.021-1.49-4.33c-.1-.3-.21-.53-.34-.69q-.195-.24-.57-.239-.225 0-.42.119a.74.74 0 0 0-.32.31.73.73 0 0 0-.12.41c0 .149.07.37.2.689l2.16 5.44-.16.399c-.12.28-.22.5-.32.65-.09.15-.19.25-.31.31-.11.061-.27.091-.47.091a1 1 0 0 1-.29-.04c-.09-.021-.19-.04-.28-.04-.24 0-.42.06-.54.17-.13.109-.19.26-.19.46 0 .3.13.5.39.62.26.109.64.16 1.16.16q.783 0 1.25-.24.48-.24.75-.69c.19-.3.39-.71.58-1.24l2.3-6c.05-.159.1-.31.14-.46.039-.149.06-.27.08-.35a.75.75 0 0 0-.1-.381m21.31-.237h.419v-.527c0-.552.067-.987.207-1.313q.21-.487.71-.708.498-.221 1.367-.222 1.542-.002 1.54.755a.6.6 0 0 1-.163.417.5.5 0 0 1-.378.174q-.102 0-.357-.04a3 3 0 0 0-.422-.038q-.474.002-.614.281-.13.279-.132.803v.418h.429q1.006-.001 1.004.607c0 .284-.086.468-.267.545q-.266.117-.737.116h-.429v4.656q.001.52-.25.792a.81.81 0 0 1-.639.275.8.8 0 0 1-.622-.275q-.248-.272-.247-.792v-4.656h-.484c-.263 0-.462-.057-.605-.178a.56.56 0 0 1-.213-.459q-.001-.632.883-.631m5.753 4.456v1.469c0 .355-.09.623-.253.8a.83.83 0 0 1-.636.268.8.8 0 0 1-.628-.272q-.242-.268-.244-.796v-4.895q0-1.186.854-1.186.44 0 .633.276.192.277.215.819.313-.542.643-.819c.225-.185.517-.276.888-.276.372 0 .727.092 1.074.276q.523.279.522.735a.7.7 0 0 1-.221.53.68.68 0 0 1-.479.211q-.101-.002-.47-.122a2.3 2.3 0 0 0-.652-.117q-.388.001-.632.202-.246.207-.382.601a4.6 4.6 0 0 0-.185.952q-.047.554-.047 1.344m8.817.121c-.16 0-.29.04-.38.12-.22.2-.399.37-.54.479-.14.131-.279.24-.449.341-.16.109-.33.189-.5.229-.181.061-.37.08-.58.08-.311 0-.601-.08-.86-.229q-.39-.24-.63-.69c-.15-.3-.23-.66-.24-1.06h3.44q.692.002 1.069-.19c.25-.14.38-.42.38-.86 0-.479-.12-.939-.37-1.409-.239-.461-.609-.83-1.1-1.12q-.735-.433-1.77-.431c-.53 0-1.011.08-1.44.25s-.8.41-1.09.73c-.3.32-.53.7-.68 1.14-.16.45-.23.931-.23 1.45 0 1.1.31 1.98.94 2.62.619.64 1.5.96 2.63.96.489 0 .93-.061 1.31-.19.38-.13.7-.29.95-.479.25-.2.44-.4.57-.62.12-.21.18-.39.18-.55a.54.54 0 0 0-.17-.42.63.63 0 0 0-.44-.151m-3.661-3.07c.28-.3.641-.449 1.07-.449.471 0 .83.149 1.12.449.28.29.44.74.48 1.341h-3.19c.062-.591.231-1.031.52-1.341m10.971 3.07c-.16 0-.29.04-.38.12-.221.2-.4.37-.54.479-.141.131-.28.24-.45.341-.16.109-.33.189-.51.229-.17.061-.36.08-.57.08-.31 0-.6-.08-.86-.229-.26-.16-.47-.391-.619-.69-.16-.3-.24-.66-.25-1.06h3.44c.46 0 .82-.061 1.07-.19.25-.14.38-.42.38-.86 0-.479-.12-.939-.37-1.409-.24-.461-.61-.83-1.1-1.12-.5-.29-1.08-.431-1.771-.431-.53 0-1.01.08-1.44.25-.439.17-.8.41-1.09.73q-.452.48-.68 1.14-.24.673-.24 1.45c0 1.1.32 1.98.95 2.62.62.64 1.5.96 2.63.96.49 0 .93-.061 1.311-.19q.572-.195.949-.479c.25-.2.44-.4.56-.62.13-.21.18-.39.18-.55 0-.181-.05-.32-.16-.42a.63.63 0 0 0-.44-.151m-3.67-3.07q.434-.45 1.08-.449c.46 0 .83.149 1.119.449.28.29.44.74.481 1.341h-3.19c.06-.591.23-1.031.51-1.341m11.98 1.69c-.02-.65-.149-1.21-.38-1.7q-.405-.797-1.08-1.22-.69-.42-1.5-.42c-.45 0-.85.1-1.2.29-.359.189-.71.49-1.04.899v-.21c0-.33-.069-.569-.23-.739-.16-.171-.36-.25-.61-.25s-.449.079-.6.239c-.15.17-.22.42-.22.761v7.579c0 .391.06.671.159.881.11.189.33.29.66.29.561 0 .84-.391.84-1.16v-2.63c.181.22.36.409.551.569.14.12.279.221.43.311q.51.3 1.26.3.63 0 1.17-.24c.37-.17.681-.41.95-.71q.39-.464.63-1.14c.15-.45.221-.95.221-1.49 0-.07 0-.139-.011-.21m-1.98 1.42c-.15.34-.34.59-.601.76-.239.17-.52.261-.81.261-.06 0-.12 0-.17-.021-.42-.03-.771-.229-1.061-.57-.33-.38-.489-.93-.489-1.63 0-.74.159-1.3.5-1.69.329-.38.739-.57 1.22-.57q.465 0 .84.27c.25.181.44.431.58.771.15.33.22.729.22 1.19 0 .43-.06.8-.19 1.109a.5.5 0 0 1-.039.12m4.38-4.51c-.17-.181-.38-.26-.64-.26-.25 0-.461.079-.62.26-.16.18-.25.439-.25.79v5.029c0 .341.09.601.25.79.159.181.37.27.62.27.26 0 .47-.08.64-.27.17-.18.25-.44.25-.79v-5.079c0-.32-.08-.56-.25-.74m-.01-2.58a.92.92 0 0 0-.61-.22c-.23 0-.441.08-.62.239-.18.16-.27.37-.27.62q0 .406.27.63c.17.15.38.23.62.23s.439-.08.62-.23c.17-.149.25-.359.25-.63 0-.278-.09-.499-.26-.639m5.928 8.662-1.548-2.552-.954.9v1.399q0 .508-.269.779a.82.82 0 0 1-.614.275q-.407.001-.638-.272-.23-.268-.232-.796v-7.498q.002-.582.224-.89.229-.309.646-.307.405 0 .643.279.238.276.239.814v4.265l1.977-2.075c.245-.255.429-.435.56-.527a.76.76 0 0 1 .467-.142c.221 0 .402.07.553.209q.216.211.217.524 0 .386-.715 1.031l-.933.855 1.802 2.835c.131.213.229.368.287.479a.7.7 0 0 1 .088.313q0 .418-.23.661a.8.8 0 0 1-.601.24c-.214 0-.382-.055-.497-.174-.114-.113-.275-.323-.472-.625m3.819.803a1 1 0 0 1-.686-.258q-.29-.255-.291-.722.001-.393.278-.675a.92.92 0 0 1 .684-.283q.401 0 .692.279.285.28.286.679-.001.461-.286.718a.98.98 0 0 1-.677.262m8.743-2.176q0 .328-.197.701-.195.375-.601.712a3.1 3.1 0 0 1-1.013.544 4.3 4.3 0 0 1-1.376.208q-1.633-.001-2.547-.949-.911-.952-.912-2.549-.001-1.083.419-1.914.416-.828 1.208-1.283c.527-.304 1.162-.454 1.894-.454q.683 0 1.255.2.568.2.966.515.394.319.604.672.209.358.208.669a.7.7 0 0 1-.232.534.82.82 0 0 1-.568.22.6.6 0 0 1-.367-.113 1.7 1.7 0 0 1-.324-.367q-.321-.488-.675-.731-.348-.245-.89-.245c-.517 0-.939.202-1.257.608-.316.403-.477.962-.477 1.663q.001.498.124.913.119.415.353.708.233.291.561.443.33.154.721.152.53 0 .905-.244.382-.244.669-.747.16-.295.345-.463a.66.66 0 0 1 .458-.169q.323.001.533.245.212.246.213.521m7.339-2.849c-.159-.43-.39-.81-.699-1.13a3.1 3.1 0 0 0-1.11-.729c-.44-.181-.92-.26-1.45-.26s-1.01.079-1.439.25c-.431.17-.801.409-1.11.729-.3.311-.54.69-.7 1.13s-.24.931-.24 1.46c0 .53.08 1.01.231 1.45.17.43.4.81.72 1.13.3.32.681.57 1.101.74s.899.26 1.439.26c.53 0 1.01-.09 1.45-.26.42-.17.79-.41 1.101-.73.31-.319.55-.699.709-1.14.16-.44.24-.93.24-1.45a4.2 4.2 0 0 0-.243-1.45m-1.989 3.11c-.32.41-.74.61-1.271.61-.359 0-.66-.09-.92-.271a1.77 1.77 0 0 1-.6-.8q-.21-.51-.21-1.2c0-.46.069-.87.21-1.22.14-.34.34-.61.609-.79.261-.17.56-.26.91-.26.53 0 .95.2 1.271.6.31.4.47.96.47 1.67.001.711-.159 1.261-.469 1.661m8.938-1.528v2.336c0 .371-.082.645-.251.832a.85.85 0 0 1-.662.276.82.82 0 0 1-.645-.276c-.168-.188-.252-.461-.252-.832v-2.8q0-.663-.043-1.033a1.13 1.13 0 0 0-.246-.598q-.2-.239-.631-.238c-.576 0-.953.196-1.136.597q-.274.587-.275 1.699v2.373q-.001.547-.245.829a.84.84 0 0 1-.654.279.85.85 0 0 1-.655-.279q-.255-.282-.255-.829v-5.028q0-.497.227-.753a.77.77 0 0 1 .603-.259c.242 0 .441.084.604.241q.24.242.24.667v.166q.462-.545.978-.8a2.5 2.5 0 0 1 1.161-.262q.661 0 1.137.264.476.266.787.798.447-.537.955-.8a2.4 2.4 0 0 1 1.127-.262c.479 0 .896.097 1.242.284q.519.284.778.81.224.48.224 1.503v3.431c0 .371-.083.645-.249.832q-.252.277-.664.276a.85.85 0 0 1-.653-.279q-.255-.282-.255-.829v-2.956q-.001-.567-.047-.906a1.04 1.04 0 0 0-.26-.574q-.216-.231-.646-.232-.348.002-.66.208a1.4 1.4 0 0 0-.488.551q-.19.444-.191 1.573m-81.805-.555q-.002-.004-.002-.012zm.089.563h.002zm.581 1.631-.012-.023zm-.418-1.003h.002zm6.551-7.924c.34 0 .59.026.878.075l.081-.517s-.794-.244-1.837-.159l-.082-.281a.716.716 0 1 0-.298 0l.09.314c-1.107.152-1.989.585-1.989.585l.156.478c.67-.224 1.252-.358 1.778-.416a12 12 0 0 1 1.223-.079m-6.146 2.614.004-.005.077-.097-.212-.153-.331-.241c-.019.025-.539.504-.95 1.388a1 1 0 0 0-.061-.081q-.185-.202-.514-.198h-.01a.42.42 0 0 1-.289-.101.454.454 0 1 0-.244.16.7.7 0 0 0 .547.226q.199-.002.296.105c.075.082.1.2.108.29l-.002.003c-.295.807-.211 1.81-.211 1.81l.716.028c.015-.365.067-1.004.252-1.512.359-.981.806-1.596.824-1.622m12.38-2.016a.453.453 0 0 0-.437.565.7.7 0 0 0-.228.549q.004.199-.105.296a.5.5 0 0 1-.2.096c-.533-.747-1.19-1.203-1.19-1.203l-.514.551c.389.353.785.797 1.171 1.349.267.382.542.875.771 1.366l.693-.33s-.316-.783-.763-1.485a.7.7 0 0 0 .225-.13q.204-.186.198-.514a.43.43 0 0 1 .101-.3.454.454 0 1 0 .278-.81m-1.801 6.237c-.955.466-2.527 1.08-4.596 1.369-.812.112-1.599.154-2.324.154a19 19 0 0 1-2.414-.151 18 18 0 0 1-1.648-.283 6 6 0 0 0 .316.804l.044.091.044.086.012.023c.205.387.452.742.732 1.05.976 1.067 1.97 1.236 1.979 1.237l.016.002.015.005c.009.004.89.288 2.23.288a9.8 9.8 0 0 0 3.845-.791c.913-.467 1.777-1.177 2.205-1.81.331-.489.57-1.012.712-1.555.075-.288.135-.75.1-1.236-.268.18-.692.436-1.268.717"></path>
  <path style="fill:#fff" d="M381.089 477.736c-1.35-1.94-2.819-2.44-3.569-2.56a4.6 4.6 0 0 0-.841-.069c-.31 0-.68.02-1.189.069-.5.051-1.06.19-1.71.41-.92.3-1.74.78-2.39 1.38l-.02.021c-.1.09-.3.28-.53.57-.03.04-.45.63-.77 1.529-.25.681-.24 1.66-.24 1.67 0 .23.02.46.04.69v.01c.01.03.01.05.01.08.02.16.05.32.08.48.48.119 3.31.779 6.47.34 1.99-.28 3.49-.86 4.41-1.311a8.7 8.7 0 0 0 1.44-.84c-.191-.688-.711-1.789-1.191-2.469m-7.52 3.14c-1.06 0-1.91-.85-1.91-1.91a1.9 1.9 0 0 1 1.91-1.899c1.05 0 1.91.85 1.91 1.899 0 1.06-.86 1.91-1.91 1.91m5.58-1.399a1.185 1.185 0 0 1 0-2.37 1.185 1.185 0 0 1 0 2.37"></path>
</svg>